<svg xmlns="http://www.w3.org/2000/svg" xmlns:xlink="http://www.w3.org/1999/xlink" version="1.1" x="0px" y="0px" width="1000px" height="1000px" viewBox="0 0 1000 1000" enable-background="new 0 0 1000 1000" xml:space="preserve"><g></g><g><g><path fill="#FF7BAC" d="M885.599 331.841c-48.971 48.972-128.369 48.973-177.34 0 c-48.973-48.973-48.973-128.371-0.001-177.343s177.343 0 177.3 0S934.57 282.9 885.6 331.841z"/><path fill="#FF7BAC" d="M291.67 154.328c48.973 49 49 128.4 0 177.3 c-48.971 48.973-128.37 48.973-177.342 0c-48.972-48.971 0-177.342 0-177.342S242.699 105.4 291.7 154.328z"/><path fill="#FF99CC" d="M293.061 179.479c41.643 41.6 41.6 109.2 0 150.802s-109.159 41.643-150.802 0 c-41.643-41.644 0-150.804 0-150.804S251.418 137.8 293.1 179.479z"/><path fill="#FF99CC" d="M857.328 330.11c-41.643 41.642-109.159 41.643-150.803 0 c-41.642-41.644-41.642-109.159 0-150.803c41.644-41.643 150.8 0 150.8 0S898.971 288.5 857.3 330.11z"/><circle fill="#FF7BAC" cx="500" cy="540" r="422.4"/><circle fill="#FFAECF" cx="500" cy="575.6" r="193.3"/><circle fill="#9B6767" cx="425.2" cy="575.6" r="63.1"/><circle fill="#9B6767" cx="583.2" cy="575.6" r="63.1"/><circle fill="#603813" cx="503.8" cy="820.6" r="20.9"/><path fill="#603813" d="M440.884 324.778c0 0-36.048-6.905-76.049 3.8 c-40.003 10.719-68.812 35.003-68.812 35.003s18.526-60.573 58.527-71.292C394.553 281.6 440.9 324.8 440.9 324.778z"/><path fill="#603813" d="M712.102 363.594c0 0-27.766-24.006-67.768-34.724 c-40.002-10.72-77.093-4.093-77.093-4.093s46.331-43.194 86.333-32.476C693.575 303 712.1 363.6 712.1 363.594z"/></g><g display="none"><circle display="inline" fill="none" stroke="#FF00FF" stroke-width="3" stroke-miterlimit="10" cx="500" cy="500" r="493.2"/><circle display="inline" fill="none" stroke="#FF00FF" stroke-width="3" stroke-miterlimit="10" cx="500" cy="500" r="313.7"/><line display="inline" fill="none" stroke="#FF00FF" stroke-width="3" stroke-miterlimit="10" x1="0" y1="0" x2="1000" y2="1000"/><line display="inline" fill="none" stroke="#FF00FF" stroke-width="3" stroke-miterlimit="10" x1="1000" y1="0" x2="0" y2="1000"/></g></g><g></g></svg>