<svg xmlns="http://www.w3.org/2000/svg" xmlns:xlink="http://www.w3.org/1999/xlink" version="1.1" x="0px" y="0px" width="1000px" height="1000px" viewBox="0 0 1000 1000" enable-background="new 0 0 1000 1000" xml:space="preserve"><g></g><g><g><path fill="#FF7BAC" d="M885.598 331.841c-48.971 48.972-128.369 48.973-177.34 0 c-48.973-48.973-48.973-128.371-0.002-177.343c48.973-48.972 177.3 0 177.3 0S934.57 282.9 885.6 331.841z"/><path fill="#FF7BAC" d="M291.67 154.328c48.973 49 49 128.4 0 177.3 c-48.972 48.973-128.371 48.973-177.342 0c-48.973-48.971 0-177.342 0-177.342S242.698 105.4 291.7 154.328z"/><path fill="#FF99CC" d="M293.06 179.479c41.643 41.6 41.6 109.2 0 150.8 s-109.158 41.643-150.802 0.001c-41.642-41.644 0-150.804 0-150.804S251.417 137.8 293.1 179.479z"/><path fill="#FF99CC" d="M857.328 330.11c-41.644 41.642-109.16 41.643-150.803 0 c-41.643-41.644-41.643-109.159 0-150.803c41.643-41.643 150.8 0 150.8 0S898.97 288.5 857.3 330.11z"/><circle fill="#FF7BAC" cx="500" cy="540" r="422.4"/><circle fill="#FFAECF" cx="500" cy="575.6" r="193.3"/><circle fill="#9B6767" cx="425.2" cy="575.6" r="63.1"/><circle fill="#9B6767" cx="583.2" cy="575.6" r="63.1"/><circle fill="#603813" cx="503.8" cy="820.6" r="20.9"/><g><path fill="#ED1C24" d="M410.272 360.351c0 0-31.286-16.194-60.567-45.477 c-29.285-29.284-45.478-60.568-45.478-60.568s40.09 7.4 69.4 36.672C402.885 320.3 410.3 360.4 410.3 360.351z"/><path fill="#ED1C24" d="M419.076 254.306c0 0-16.192 31.284-45.476 60.6 c-29.284 29.284-60.567 45.478-60.567 45.478s7.387-40.09 36.672-69.373C378.988 261.7 419.1 254.3 419.1 254.306z"/></g><g><path fill="#ED1C24" d="M695.393 360.351c0 0-31.285-16.194-60.567-45.477 c-29.284-29.284-45.478-60.568-45.478-60.568s40.09 7.4 69.4 36.672C688.005 320.3 695.4 360.4 695.4 360.351z"/><path fill="#ED1C24" d="M704.197 254.306c0 0-16.193 31.284-45.478 60.6 c-29.283 29.284-60.566 45.478-60.566 45.478s7.388-40.09 36.672-69.373C664.108 261.7 704.2 254.3 704.2 254.306z"/></g></g><g display="none"><circle display="inline" fill="none" stroke="#FF00FF" stroke-width="3" stroke-miterlimit="10" cx="500" cy="500" r="493.2"/><circle display="inline" fill="none" stroke="#FF00FF" stroke-width="3" stroke-miterlimit="10" cx="500" cy="500" r="313.7"/><line display="inline" fill="none" stroke="#FF00FF" stroke-width="3" stroke-miterlimit="10" x1="0" y1="0" x2="1000" y2="1000"/><line display="inline" fill="none" stroke="#FF00FF" stroke-width="3" stroke-miterlimit="10" x1="1000" y1="0" x2="0" y2="1000"/></g></g><g></g></svg>