<?xml version="1.0" encoding="utf-8"?>
<!-- Generator: Adobe Illustrator 16.0.0, SVG Export Plug-In . SVG Version: 6.00 Build 0)  -->
<!DOCTYPE svg PUBLIC "-//W3C//DTD SVG 1.1//EN" "http://www.w3.org/Graphics/SVG/1.1/DTD/svg11.dtd">
<svg version="1.1" xmlns="http://www.w3.org/2000/svg" xmlns:xlink="http://www.w3.org/1999/xlink" x="0px" y="0px" width="1000px"
	 height="1000px" viewBox="0 0 1000 1000" enable-background="new 0 0 1000 1000" xml:space="preserve">
<g id="Rat">
</g>
<g id="Pig">
	<g id="Pig_Dead">
		<path id="ear_right_1_" fill="#FF7BAC" d="M885.598,331.841c-48.971,48.972-128.369,48.973-177.34,0.001
			c-48.973-48.973-48.973-128.371-0.002-177.343c48.973-48.972,177.343,0,177.343,0S934.57,282.869,885.598,331.841z"/>
		<path id="ear_left_1_" fill="#FF7BAC" d="M291.67,154.328c48.973,48.972,48.973,128.371,0,177.342
			c-48.972,48.973-128.371,48.973-177.342,0c-48.973-48.971,0-177.342,0-177.342S242.698,105.356,291.67,154.328z"/>
		<path id="ear_inner_l_1_" fill="#FF99CC" d="M293.06,179.479c41.643,41.643,41.643,109.159,0,150.802
			s-109.158,41.643-150.802,0.001c-41.642-41.644,0-150.804,0-150.804S251.417,137.836,293.06,179.479z"/>
		<path id="ear_inner_r_1_" fill="#FF99CC" d="M857.328,330.11c-41.644,41.642-109.16,41.643-150.803,0
			c-41.643-41.644-41.643-109.159,0-150.803c41.643-41.643,150.804,0,150.804,0S898.97,288.466,857.328,330.11z"/>
		<circle id="head_1_" fill="#FF7BAC" cx="499.999" cy="540" r="422.4"/>
		<circle id="snout_1_" fill="#FFAECF" cx="499.998" cy="575.64" r="193.286"/>
		<circle id="nostril_left_1_" fill="#9B6767" cx="425.153" cy="575.64" r="63.112"/>
		<circle id="nostril_right_1_" fill="#9B6767" cx="583.158" cy="575.64" r="63.112"/>
		<circle id="mouth_1_" fill="#603813" cx="503.828" cy="820.594" r="20.938"/>
		<g>
			<path id="eye_left_1_" fill="#ED1C24" d="M410.272,360.351c0,0-31.286-16.194-60.567-45.477
				c-29.285-29.284-45.478-60.568-45.478-60.568s40.09,7.389,69.373,36.672C402.885,320.262,410.272,360.351,410.272,360.351z"/>
			<path id="eye_left_2_" fill="#ED1C24" d="M419.076,254.306c0,0-16.192,31.284-45.476,60.567
				c-29.284,29.284-60.567,45.478-60.567,45.478s7.387-40.09,36.672-69.373C378.988,261.694,419.076,254.306,419.076,254.306z"/>
		</g>
		<g>
			<path id="eye_left_4_" fill="#ED1C24" d="M695.393,360.351c0,0-31.285-16.194-60.567-45.477
				c-29.284-29.284-45.478-60.568-45.478-60.568s40.09,7.389,69.372,36.672C688.005,320.262,695.393,360.351,695.393,360.351z"/>
			<path id="eye_left_3_" fill="#ED1C24" d="M704.197,254.306c0,0-16.193,31.284-45.478,60.567
				c-29.283,29.284-60.566,45.478-60.566,45.478s7.388-40.09,36.672-69.373C664.108,261.694,704.197,254.306,704.197,254.306z"/>
		</g>
	</g>
	<g id="Grid_3_" display="none">
		<circle display="inline" fill="none" stroke="#FF00FF" stroke-width="3" stroke-miterlimit="10" cx="500" cy="500" r="493.182"/>
		<circle display="inline" fill="none" stroke="#FF00FF" stroke-width="3" stroke-miterlimit="10" cx="500" cy="500" r="313.681"/>
		
			<line display="inline" fill="none" stroke="#FF00FF" stroke-width="3" stroke-miterlimit="10" x1="0" y1="0" x2="1000" y2="1000"/>
		
			<line display="inline" fill="none" stroke="#FF00FF" stroke-width="3" stroke-miterlimit="10" x1="1000" y1="0" x2="0" y2="1000"/>
	</g>
</g>
<g id="Squid">
</g>
</svg>
