<?xml version="1.0" encoding="utf-8"?>
<!-- Generator: Adobe Illustrator 16.0.0, SVG Export Plug-In . SVG Version: 6.00 Build 0)  -->
<!DOCTYPE svg PUBLIC "-//W3C//DTD SVG 1.1//EN" "http://www.w3.org/Graphics/SVG/1.1/DTD/svg11.dtd">
<svg version="1.1" xmlns="http://www.w3.org/2000/svg" xmlns:xlink="http://www.w3.org/1999/xlink" x="0px" y="0px" width="1000px"
	 height="1000px" viewBox="0 0 1000 1000" enable-background="new 0 0 1000 1000" xml:space="preserve">
<g id="Rat">
	<g id="Rat_Dead">
		<path fill="#603813" d="M857.118,348.457c-52.282,52.282-137.049,52.282-189.332,0c-52.281-52.282-52.281-137.049,0-189.33
			c52.283-52.282,300.449-111.118,300.449-111.118S909.399,296.175,857.118,348.457z"/>
		<path fill="#603813" d="M319.637,159.127c52.282,52.282,52.282,137.049,0,189.332c-52.282,52.281-137.049,52.281-189.33,0
			C78.024,296.176,19.188,48.01,19.188,48.01S267.354,106.846,319.637,159.127z"/>
		<path id="ear_left_inner_1_" fill="#998675" d="M277.894,169.994c37.754,37.754,37.754,98.966,0,136.722
			c-37.755,37.753-98.967,37.753-136.72,0C103.419,268.96,60.932,89.753,60.932,89.753S240.139,132.24,277.894,169.994z"/>
		<path id="ear_right_inner_1_" fill="#998675" d="M849.704,306.715c-37.755,37.754-98.968,37.754-136.723,0
			c-37.754-37.755-37.754-98.968,0-136.721c37.755-37.755,216.962-80.241,216.962-80.241S887.456,268.96,849.704,306.715z"/>
		<circle id="head_3_" fill="#754C24" cx="494.383" cy="543.103" r="408.889"/>
		<path id="whisker_left_middle_1_" fill="#603813" d="M450.993,708.839c0,0-64.85,11.479-81.336,11.479
			S4.261,710.219,4.261,710.219s351.017-9.757,365.396-10.086C386.458,699.748,450.993,708.839,450.993,708.839z"/>
		<path id="whisker_left_top_1_" fill="#603813" d="M455.24,709.198c0,0-65.61-5.697-81.535-9.964
			C357.78,694.967,23.372,594.907,23.372,594.907s341.582,81.426,355.557,84.83C395.256,683.715,455.24,709.198,455.24,709.198z"/>
		<path id="whisker_left_bottom_1_" fill="#603813" d="M455.24,709.907c0,0-65.61,5.697-81.535,9.964
			C357.78,724.139,23.372,824.198,23.372,824.198s341.582-81.426,355.557-84.83C395.256,735.391,455.24,709.907,455.24,709.907z"/>
		<path id="whisker_right_middle_1_" fill="#603813" d="M549.008,708.839c0,0,64.85,11.479,81.336,11.479
			s365.396-10.099,365.396-10.099s-351.018-9.757-365.396-10.086C613.543,699.748,549.008,708.839,549.008,708.839z"/>
		<path id="whisker_right_top_1_" fill="#603813" d="M544.761,709.198c0,0,65.61-5.697,81.535-9.964
			c15.925-4.268,350.332-104.327,350.332-104.327s-341.581,81.426-355.557,84.83C604.745,683.715,544.761,709.198,544.761,709.198z"
			/>
		<path id="whisker_right_bottom_1_" fill="#603813" d="M544.761,709.907c0,0,65.61,5.697,81.535,9.964
			c15.925,4.268,350.332,104.327,350.332,104.327s-341.581-81.426-355.557-84.83C604.745,735.391,544.761,709.907,544.761,709.907z"
			/>
		<circle id="nose_1_" fill="#42210B" cx="494.383" cy="710.654" r="95.833"/>
		<circle id="mouth_5_" fill="#42210B" cx="494.383" cy="854.404" r="30.228"/>
		<g>
			<defs>
				<circle id="mouth_2_" cx="494.383" cy="854.404" r="30.228"/>
			</defs>
			<clipPath id="mouth_6_">
				<use xlink:href="#mouth_2_"  overflow="visible"/>
			</clipPath>
			<g id="teeth_1_" clip-path="url(#mouth_6_)">
				<rect id="tooth2_1_" x="475" y="823" fill="#FFFFFF" width="19" height="39"/>
				<rect id="tooth1_1_" x="497" y="823" fill="#FFFFFF" width="19" height="39"/>
			</g>
		</g>
		<g>
			<path id="eye_left_9_" fill="#ED1C24" d="M413.144,395.098c0,0-30.285-15.677-58.631-44.022
				c-28.347-28.347-44.022-58.63-44.022-58.63s38.809,7.151,67.154,35.498C405.992,356.29,413.144,395.098,413.144,395.098z"/>
			<path id="eye_left_8_" fill="#ED1C24" d="M421.667,292.445c0,0-15.676,30.284-44.022,58.63
				c-28.347,28.348-58.63,44.022-58.63,44.022s7.151-38.809,35.498-67.155C382.859,299.597,421.667,292.445,421.667,292.445z"/>
		</g>
		<g>
			<path id="eye_left_7_" fill="#ED1C24" d="M689.144,395.098c0,0-30.285-15.677-58.631-44.022
				c-28.347-28.347-44.022-58.63-44.022-58.63s38.809,7.151,67.154,35.498C681.992,356.29,689.144,395.098,689.144,395.098z"/>
			<path id="eye_left_6_" fill="#ED1C24" d="M697.667,292.445c0,0-15.676,30.284-44.022,58.63
				c-28.347,28.348-58.63,44.022-58.63,44.022s7.151-38.809,35.498-67.155C658.859,299.597,697.667,292.445,697.667,292.445z"/>
		</g>
	</g>
	<g id="Grid_5_" display="none">
		<circle display="inline" fill="none" stroke="#FF00FF" stroke-width="3" stroke-miterlimit="10" cx="500" cy="500" r="493.182"/>
		<circle display="inline" fill="none" stroke="#FF00FF" stroke-width="3" stroke-miterlimit="10" cx="500" cy="500" r="313.681"/>
		
			<line display="inline" fill="none" stroke="#FF00FF" stroke-width="3" stroke-miterlimit="10" x1="0" y1="0" x2="1000" y2="1000"/>
		
			<line display="inline" fill="none" stroke="#FF00FF" stroke-width="3" stroke-miterlimit="10" x1="1000" y1="0" x2="0" y2="1000"/>
	</g>
</g>
<g id="Pig">
</g>
<g id="Squid">
</g>
</svg>
