<svg xmlns="http://www.w3.org/2000/svg" xmlns:xlink="http://www.w3.org/1999/xlink" version="1.1" x="0px" y="0px" width="1000px" height="1000px" viewBox="0 0 1000 1000" enable-background="new 0 0 1000 1000" xml:space="preserve"><g><g><path fill="#603813" d="M857.118 348.457c-52.282 52.282-137.049 52.282-189.332 0c-52.281-52.282-52.281-137.049 0-189.33 c52.283-52.282 300.449-111.118 300.449-111.118S909.399 296.2 857.1 348.457z"/><path fill="#603813" d="M319.637 159.127c52.282 52.3 52.3 137 0 189.332c-52.282 52.281-137.049 52.281-189.33 0 C78.024 296.2 19.2 48 19.2 48.01S267.354 106.8 319.6 159.127z"/><path fill="#998675" d="M277.894 169.994c37.754 37.8 37.8 99 0 136.7 c-37.755 37.753-98.967 37.753-136.72 0C103.419 269 60.9 89.8 60.9 89.753S240.139 132.2 277.9 169.994z"/><path fill="#998675" d="M849.704 306.715c-37.755 37.754-98.968 37.754-136.723 0 c-37.754-37.755-37.754-98.968 0-136.721c37.755-37.755 216.962-80.241 216.962-80.241S887.456 269 849.7 306.715z"/><circle fill="#754C24" cx="494.4" cy="543.1" r="408.9"/><path fill="#603813" d="M450.993 708.839c0 0-64.85 11.479-81.336 11.5 S4.261 710.2 4.3 710.219s351.017-9.757 365.396-10.086C386.458 699.7 451 708.8 451 708.839z"/><path fill="#603813" d="M455.24 709.198c0 0-65.61-5.697-81.535-9.964 C357.78 695 23.4 594.9 23.4 594.907s341.582 81.4 355.6 84.83C395.256 683.7 455.2 709.2 455.2 709.198z"/><path fill="#603813" d="M455.24 709.907c0 0-65.61 5.697-81.535 10 C357.78 724.1 23.4 824.2 23.4 824.198s341.582-81.426 355.557-84.83C395.256 735.4 455.2 709.9 455.2 709.907z"/><path fill="#603813" d="M549.008 708.839c0 0 64.8 11.5 81.3 11.5 s365.396-10.099 365.396-10.099s-351.018-9.757-365.396-10.086C613.543 699.7 549 708.8 549 708.839z"/><path fill="#603813" d="M544.761 709.198c0 0 65.61-5.697 81.535-9.964 c15.925-4.268 350.332-104.327 350.332-104.327s-341.581 81.426-355.557 84.83C604.745 683.7 544.8 709.2 544.8 709.198z"/><path fill="#603813" d="M544.761 709.907c0 0 65.6 5.7 81.5 10 c15.925 4.3 350.3 104.3 350.3 104.327s-341.581-81.426-355.557-84.83C604.745 735.4 544.8 709.9 544.8 709.907z"/><circle fill="#42210B" cx="494.4" cy="710.7" r="95.8"/><circle fill="#42210B" cx="494.4" cy="854.4" r="30.2"/><g><defs><circle cx="494.4" cy="854.4" r="30.2"/></defs><clipPath><use xlink:href="#mouth_2_" overflow="visible"/></clipPath><g clip-path="url(#mouth_6_)"><rect x="475" y="823" fill="#FFFFFF" width="19" height="39"/><rect x="497" y="823" fill="#FFFFFF" width="19" height="39"/></g></g><g><path fill="#ED1C24" d="M413.144 395.098c0 0-30.285-15.677-58.631-44.022 c-28.347-28.347-44.022-58.63-44.022-58.63s38.809 7.2 67.2 35.498C405.992 356.3 413.1 395.1 413.1 395.098z"/><path fill="#ED1C24" d="M421.667 292.445c0 0-15.676 30.284-44.022 58.6 c-28.347 28.348-58.63 44.022-58.63 44.022s7.151-38.809 35.498-67.155C382.859 299.6 421.7 292.4 421.7 292.445z"/></g><g><path fill="#ED1C24" d="M689.144 395.098c0 0-30.285-15.677-58.631-44.022 c-28.347-28.347-44.022-58.63-44.022-58.63s38.809 7.2 67.2 35.498C681.992 356.3 689.1 395.1 689.1 395.098z"/><path fill="#ED1C24" d="M697.667 292.445c0 0-15.676 30.284-44.022 58.6 c-28.347 28.348-58.63 44.022-58.63 44.022s7.151-38.809 35.498-67.155C658.859 299.6 697.7 292.4 697.7 292.445z"/></g></g><g display="none"><circle display="inline" fill="none" stroke="#FF00FF" stroke-width="3" stroke-miterlimit="10" cx="500" cy="500" r="493.2"/><circle display="inline" fill="none" stroke="#FF00FF" stroke-width="3" stroke-miterlimit="10" cx="500" cy="500" r="313.7"/><line display="inline" fill="none" stroke="#FF00FF" stroke-width="3" stroke-miterlimit="10" x1="0" y1="0" x2="1000" y2="1000"/><line display="inline" fill="none" stroke="#FF00FF" stroke-width="3" stroke-miterlimit="10" x1="1000" y1="0" x2="0" y2="1000"/></g></g><g></g><g></g></svg>