<?xml version="1.0" encoding="utf-8"?>
<!-- Generator: Adobe Illustrator 16.0.0, SVG Export Plug-In . SVG Version: 6.00 Build 0)  -->
<!DOCTYPE svg PUBLIC "-//W3C//DTD SVG 1.1//EN" "http://www.w3.org/Graphics/SVG/1.1/DTD/svg11.dtd">
<svg version="1.1" xmlns="http://www.w3.org/2000/svg" xmlns:xlink="http://www.w3.org/1999/xlink" x="0px" y="0px" width="1000px"
	 height="1000px" viewBox="0 0 1000 1000" enable-background="new 0 0 1000 1000" xml:space="preserve">
<g id="Rat">
	<g id="Rat_Alive">
		<path fill="#603813" d="M857.118,348.457c-52.282,52.282-137.049,52.282-189.332,0c-52.281-52.282-52.281-137.049,0-189.33
			c52.283-52.282,300.449-111.118,300.449-111.118S909.399,296.175,857.118,348.457z"/>
		<path fill="#603813" d="M319.637,159.127c52.282,52.282,52.282,137.049,0,189.332c-52.282,52.281-137.049,52.281-189.33,0
			C78.024,296.176,19.188,48.01,19.188,48.01S267.354,106.846,319.637,159.127z"/>
		<path id="ear_left_inner" fill="#998675" d="M277.894,169.994c37.754,37.754,37.754,98.966,0,136.722
			c-37.755,37.753-98.967,37.753-136.721,0C103.418,268.96,60.932,89.753,60.932,89.753S240.139,132.24,277.894,169.994z"/>
		<path id="ear_right_inner" fill="#998675" d="M849.704,306.715c-37.755,37.754-98.968,37.754-136.723,0
			c-37.754-37.755-37.754-98.968,0-136.721c37.755-37.755,216.962-80.241,216.962-80.241S887.456,268.96,849.704,306.715z"/>
		<circle id="head_2_" fill="#754C24" cx="494.383" cy="543.103" r="408.889"/>
		<path id="eye_left_5_" fill="#42210B" d="M448.658,334.766c0,0-34.896-6.685-73.617,3.69
			c-38.723,10.376-66.61,33.883-66.61,33.883s17.935-58.636,56.656-69.012C403.81,292.953,448.658,334.766,448.658,334.766z"/>
		<path id="whisker_left_middle" fill="#603813" d="M450.993,708.839c0,0-64.849,11.479-81.335,11.479
			c-16.487,0-365.397-10.099-365.397-10.099s351.018-9.757,365.397-10.086C386.458,699.748,450.993,708.839,450.993,708.839z"/>
		<path id="whisker_left_top" fill="#603813" d="M455.24,709.198c0,0-65.61-5.697-81.535-9.964
			C357.78,694.967,23.373,594.907,23.373,594.907s341.581,81.426,355.557,84.83C395.256,683.715,455.24,709.198,455.24,709.198z"/>
		<path id="whisker_left_bottom" fill="#603813" d="M455.24,709.907c0,0-65.61,5.697-81.535,9.964
			C357.78,724.139,23.373,824.198,23.373,824.198s341.581-81.426,355.557-84.83C395.256,735.391,455.24,709.907,455.24,709.907z"/>
		<path id="whisker_right_middle" fill="#603813" d="M549.008,708.839c0,0,64.85,11.479,81.336,11.479
			s365.396-10.099,365.396-10.099s-351.018-9.757-365.396-10.086C613.543,699.748,549.008,708.839,549.008,708.839z"/>
		<path id="whisker_right_top" fill="#603813" d="M544.761,709.198c0,0,65.61-5.697,81.535-9.964
			c15.925-4.268,350.332-104.327,350.332-104.327s-341.581,81.426-355.557,84.83C604.745,683.715,544.761,709.198,544.761,709.198z"
			/>
		<path id="whisker_right_bottom" fill="#603813" d="M544.761,709.907c0,0,65.61,5.697,81.535,9.964
			c15.925,4.268,350.332,104.327,350.332,104.327s-341.581-81.426-355.557-84.83C604.745,735.391,544.761,709.907,544.761,709.907z"
			/>
		<path id="eye_right_1_" fill="#42210B" d="M711.2,372.339c0,0-26.878-23.237-65.601-33.611
			c-38.721-10.377-74.626-3.963-74.626-3.963s44.849-41.812,83.571-31.438C693.267,313.703,711.2,372.339,711.2,372.339z"/>
		<circle id="nose" fill="#42210B" cx="494.383" cy="710.654" r="95.833"/>
		<circle id="mouth_4_" fill="#42210B" cx="494.383" cy="854.404" r="30.228"/>
		<g>
			<defs>
				<circle id="mouth_3_" cx="494.383" cy="854.404" r="30.228"/>
			</defs>
			<clipPath id="mouth_6_">
				<use xlink:href="#mouth_3_"  overflow="visible"/>
			</clipPath>
			<g id="teeth" clip-path="url(#mouth_6_)">
				<rect id="tooth2" x="475" y="823" fill="#FFFFFF" width="19" height="39"/>
				<rect id="tooth1" x="497" y="823" fill="#FFFFFF" width="19" height="39"/>
			</g>
		</g>
	</g>
	<g id="Grid_4_" display="none">
		<circle display="inline" fill="none" stroke="#FF00FF" stroke-width="3" stroke-miterlimit="10" cx="500" cy="500" r="493.182"/>
		<circle display="inline" fill="none" stroke="#FF00FF" stroke-width="3" stroke-miterlimit="10" cx="500" cy="500" r="313.681"/>
		
			<line display="inline" fill="none" stroke="#FF00FF" stroke-width="3" stroke-miterlimit="10" x1="0" y1="0" x2="1000" y2="1000"/>
		
			<line display="inline" fill="none" stroke="#FF00FF" stroke-width="3" stroke-miterlimit="10" x1="1000" y1="0" x2="0" y2="1000"/>
	</g>
</g>
<g id="Pig">
</g>
<g id="Squid">
</g>
</svg>
