<?xml version="1.0" encoding="utf-8"?>
<!-- Generator: Adobe Illustrator 16.0.0, SVG Export Plug-In . SVG Version: 6.00 Build 0)  -->
<!DOCTYPE svg PUBLIC "-//W3C//DTD SVG 1.1//EN" "http://www.w3.org/Graphics/SVG/1.1/DTD/svg11.dtd">
<svg version="1.1" xmlns="http://www.w3.org/2000/svg" xmlns:xlink="http://www.w3.org/1999/xlink" x="0px" y="0px" width="1000px"
	 height="1000px" viewBox="0 0 1000 1000" enable-background="new 0 0 1000 1000" xml:space="preserve">
<g id="Rat">
</g>
<g id="Pig">
</g>
<g id="Squid">
	<g id="Squid_Dead">
		<g id="tentacle_5_1_">
			<path fill="#2E3192" d="M391.84,921.588c-8.348,33.229-42.662,52.914-75.793,44.186s-69.889-44.358-44.187-75.793
				c55.388-67.744,83.216-205.888,83.216-205.888S412.673,838.649,391.84,921.588z"/>
			<path d="M316.125,946.015c-8.629,8.656-19.57,3.21-29.699-6.886c-17.172-17.116-14.248-31.989-6.133-30.528
				c9.158,1.647,10.594,5.795,20.723,15.892C305.275,928.738,319.063,943.066,316.125,946.015z"/>
			<path d="M370.434,937.459c3.385,9.229-4.299,15.359-15.098,19.318c-18.309,6.713-43.169,0.693-39.35-4.729
				c4.309-6.118,22.828-6.917,33.627-10.876C354.156,939.507,369.281,934.315,370.434,937.459z"/>
			<path d="M382.436,886.992c7.655,1.226,8.914,8.875,7.479,17.832c-2.432,15.186-16.15,29.976-18.41,25.258
				c-2.551-5.322,4.033-18.374,5.467-27.331C377.575,898.983,379.828,886.574,382.436,886.992z"/>
			<path d="M381.64,838.556c6.108-0.624,8.633,4.972,9.362,12.121c1.238,12.118-6.242,26.236-8.935,23.087
				c-3.038-3.552-0.664-14.884-1.394-22.032C380.367,848.726,379.559,838.769,381.64,838.556z"/>
		</g>
		<g id="tentacle_4_1_">
			<path fill="#2E3192" d="M617.772,921.588c8.348,33.229,42.662,52.914,75.793,44.186s69.889-44.358,44.187-75.793
				c-55.388-67.744-83.216-205.888-83.216-205.888S596.939,838.649,617.772,921.588z"/>
			<path d="M693.487,946.015c8.629,8.656,19.57,3.21,29.699-6.886c17.172-17.116,14.248-31.989,6.133-30.528
				c-9.158,1.647-10.594,5.795-20.723,15.892C704.337,928.738,690.549,943.066,693.487,946.015z"/>
			<path d="M639.179,937.459c-3.385,9.229,4.299,15.359,15.098,19.318c18.309,6.713,43.169,0.693,39.35-4.729
				c-4.309-6.118-22.828-6.917-33.627-10.876C655.456,939.507,640.331,934.315,639.179,937.459z"/>
			<path d="M627.177,886.992c-7.655,1.226-8.914,8.875-7.479,17.832c2.432,15.186,16.15,29.976,18.41,25.258
				c2.551-5.322-4.033-18.374-5.467-27.331C632.037,898.983,629.784,886.574,627.177,886.992z"/>
			<path d="M627.973,838.556c-6.108-0.624-8.633,4.972-9.362,12.121c-1.238,12.118,6.242,26.236,8.935,23.087
				c3.038-3.552,0.664-14.884,1.394-22.032C629.245,848.726,630.054,838.769,627.973,838.556z"/>
		</g>
		<g id="tentacle_3_1_">
			<path fill="#2E3192" d="M439.772,921.588c8.348,33.229,42.662,52.914,75.793,44.186s69.889-44.358,44.187-75.793
				c-55.388-67.744-83.216-205.888-83.216-205.888S418.939,838.649,439.772,921.588z"/>
			<path d="M515.487,946.015c8.629,8.656,19.57,3.21,29.699-6.886c17.172-17.116,14.248-31.989,6.133-30.528
				c-9.158,1.647-10.594,5.795-20.723,15.892C526.337,928.738,512.549,943.066,515.487,946.015z"/>
			<path d="M461.179,937.459c-3.385,9.229,4.299,15.359,15.098,19.318c18.309,6.713,43.169,0.693,39.35-4.729
				c-4.309-6.118-22.828-6.917-33.627-10.876C477.456,939.507,462.331,934.315,461.179,937.459z"/>
			<path d="M449.177,886.992c-7.655,1.226-8.914,8.875-7.479,17.832c2.432,15.186,16.15,29.976,18.41,25.258
				c2.551-5.322-4.033-18.374-5.467-27.331C454.037,898.983,451.784,886.574,449.177,886.992z"/>
			<path d="M449.973,838.556c-6.108-0.624-8.633,4.972-9.362,12.121c-1.238,12.118,6.242,26.236,8.935,23.087
				c3.038-3.552,0.664-14.884,1.394-22.032C451.245,848.726,452.054,838.769,449.973,838.556z"/>
		</g>
		<g id="tentacle_2_1_">
			<path fill="#2E3192" d="M886.224,843.051c-213.154-40.836-82.074-360.622-82.074-360.622s-113.361,164.563-76.323,351.504
				c15.368,77.57,90.71,127.994,168.279,112.625S963.888,857.931,886.224,843.051z"/>
			<path d="M829.997,920.427c0,10.667,18.654,16.889,41.666,16.889s41.667-5.556,41.667-18.824c0-6.698-18.655-5.429-41.667-5.429
				S829.997,913.729,829.997,920.427z"/>
			<path d="M766.501,872.062c-8.145,8.365,1.439,22.874,16.427,35.966c14.987,13.093,32.762,18.113,37.847,11.446
				c3.514-4.605-9.061-14.15-24.047-27.242C781.739,879.139,770.542,867.911,766.501,872.062z"/>
			<path d="M738.593,808.81c-8.521,2.807-7.145,16.098-1.582,30.343c5.562,14.245,15.891,23.98,21.724,21.244
				c4.03-1.891-1.147-12.861-6.71-27.105C746.462,819.045,742.82,807.417,738.593,808.81z"/>
			<path d="M735.501,752.603c-7.517-0.354-10.419,10.47-10.33,23.294c0.09,12.824,5.264,23.543,10.652,23.148
				c3.723-0.274,2.953-10.418,2.865-23.242C738.599,762.978,739.229,752.779,735.501,752.603z"/>
		</g>
		<g id="tentacle_1_1_">
			<path fill="#2E3192" d="M113.777,842.051c213.153-40.836,82.073-360.622,82.073-360.622s113.36,164.563,76.323,351.504
				c-15.369,77.57-90.709,127.994-168.279,112.625C26.325,930.19,36.111,856.931,113.777,842.051z"/>
			<path d="M170.003,919.427c0,10.667-18.655,16.889-41.667,16.889S86.67,930.76,86.67,917.492c0-6.698,18.654-5.429,41.666-5.429
				S170.003,912.729,170.003,919.427z"/>
			<path d="M233.499,871.062c8.145,8.365-1.439,22.874-16.427,35.966c-14.987,13.093-32.762,18.113-37.848,11.446
				c-3.512-4.605,9.061-14.15,24.049-27.242C218.26,878.139,229.458,866.911,233.499,871.062z"/>
			<path d="M261.408,807.81c8.521,2.807,7.144,16.098,1.582,30.343c-5.562,14.245-15.891,23.98-21.725,21.244
				c-4.029-1.891,1.148-12.861,6.71-27.105C253.537,818.045,257.18,806.417,261.408,807.81z"/>
			<path d="M264.5,751.603c7.516-0.354,10.418,10.47,10.328,23.294c-0.089,12.824-5.263,23.543-10.652,23.148
				c-3.723-0.274-2.953-10.418-2.863-23.242C261.401,761.978,260.771,751.779,264.5,751.603z"/>
		</g>
		<path id="mantle_top_1_" fill="#2E3192" d="M770.916,321.031c0,123.975-148.049-30.938-272.022-30.938
			s-253.735,144.306-253.735,20.332S501.978,32.157,501.978,32.157S770.916,197.056,770.916,321.031z"/>
		<path id="head_5_" fill="#2E3192" d="M857.533,483.093c0,196.368-159.188,355.556-355.556,355.556
			S146.422,679.461,146.422,483.093s355.556-355.556,355.556-355.556S857.533,286.725,857.533,483.093z"/>
		<path id="mantle_1_" fill="#1B1464" d="M887.536,493.728c0,212.938-177.917,57.473-390.855,57.473
			s-380.262,155.466-380.262-57.473c0-212.938,385.559-385.559,385.559-385.559S887.536,280.79,887.536,493.728z"/>
		<circle id="eyeball_right_1_" fill="#FFFFFF" cx="662.673" cy="684.093" r="72"/>
		<circle id="eyeball_left_1_" fill="#FFFFFF" cx="339.673" cy="684.093" r="72"/>
		<g>
			<path id="eye_left_13_" fill="#ED1C24" d="M381.473,728.78c0,0-26.335-13.631-50.983-38.28
				c-24.649-24.65-38.28-50.983-38.28-50.983s33.746,6.219,58.395,30.869C375.254,695.035,381.473,728.78,381.473,728.78z"/>
			<path id="eye_left_12_" fill="#ED1C24" d="M388.884,639.517c0,0-13.631,26.334-38.28,50.983
				c-24.649,24.65-50.982,38.28-50.982,38.28s6.219-33.746,30.868-58.395C355.139,645.736,388.884,639.517,388.884,639.517z"/>
		</g>
		<g>
			<path id="eye_left_11_" fill="#ED1C24" d="M701.473,728.78c0,0-26.335-13.631-50.983-38.28
				c-24.649-24.65-38.28-50.983-38.28-50.983s33.746,6.219,58.395,30.869C695.254,695.035,701.473,728.78,701.473,728.78z"/>
			<path id="eye_left_10_" fill="#ED1C24" d="M708.884,639.517c0,0-13.631,26.334-38.28,50.983
				c-24.649,24.65-50.982,38.28-50.982,38.28s6.219-33.746,30.868-58.395C675.139,645.736,708.884,639.517,708.884,639.517z"/>
		</g>
	</g>
	<g id="Grid_1_" display="none">
		<circle display="inline" fill="none" stroke="#FF00FF" stroke-width="3" stroke-miterlimit="10" cx="500" cy="500" r="493.182"/>
		<circle display="inline" fill="none" stroke="#FF00FF" stroke-width="3" stroke-miterlimit="10" cx="500" cy="500" r="313.681"/>
		
			<line display="inline" fill="none" stroke="#FF00FF" stroke-width="3" stroke-miterlimit="10" x1="0" y1="0" x2="1000" y2="1000"/>
		
			<line display="inline" fill="none" stroke="#FF00FF" stroke-width="3" stroke-miterlimit="10" x1="1000" y1="0" x2="0" y2="1000"/>
	</g>
</g>
</svg>
