<svg xmlns="http://www.w3.org/2000/svg" xmlns:xlink="http://www.w3.org/1999/xlink" version="1.1" x="0px" y="0px" width="1000px" height="1000px" viewBox="0 0 1000 1000" enable-background="new 0 0 1000 1000" xml:space="preserve"><g></g><g></g><g><g><g><path fill="#2E3192" d="M391.839 921.588c-8.347 33.229-42.662 52.914-75.793 44.186c-33.131-8.728-69.888-44.358-44.186-75.793 c55.388-67.744 83.215-205.888 83.215-205.888S412.673 838.6 391.8 921.588z"/><path d="M316.125 946.015c-8.628 8.656-19.57 3.21-29.699-6.886c-17.172-17.116-14.248-31.989-6.132-30.528 c9.158 1.6 10.6 5.8 20.7 15.892C305.276 928.7 319.1 943.1 316.1 946.015z"/><path d="M370.434 937.459c3.384 9.229-4.299 15.359-15.099 19.318c-18.308 6.713-43.168 0.693-39.349-4.729 c4.309-6.118 22.828-6.917 33.627-10.876C354.156 939.5 369.3 934.3 370.4 937.459z"/><path d="M382.436 886.992c7.655 1.2 8.9 8.9 7.5 17.832c-2.432 15.186-16.15 29.976-18.411 25.3 c-2.551-5.322 4.033-18.374 5.467-27.331C377.575 899 379.8 886.6 382.4 886.992z"/><path d="M381.64 838.556c6.108-0.624 8.6 5 9.4 12.121c1.238 12.118-6.242 26.236-8.935 23.1 c-3.039-3.552-0.664-14.884-1.394-22.032C380.367 848.7 379.6 838.8 381.6 838.556z"/></g><g><path fill="#2E3192" d="M617.772 921.588c8.348 33.2 42.7 52.9 75.8 44.186s69.889-44.358 44.187-75.793 c-55.388-67.744-83.216-205.888-83.216-205.888S596.939 838.6 617.8 921.588z"/><path d="M693.487 946.015c8.629 8.7 19.6 3.2 29.699-6.886c17.172-17.116 14.248-31.989 6.133-30.528 c-9.158 1.647-10.594 5.795-20.723 15.892C704.337 928.7 690.5 943.1 693.5 946.015z"/><path d="M639.179 937.459c-3.385 9.2 4.3 15.4 15.1 19.318c18.309 6.7 43.2 0.7 39.35-4.729 c-4.309-6.118-22.828-6.917-33.627-10.876C655.456 939.5 640.3 934.3 639.2 937.459z"/><path d="M627.177 886.992c-7.655 1.226-8.914 8.875-7.479 17.832c2.432 15.2 16.1 30 18.4 25.3 c2.551-5.322-4.033-18.374-5.467-27.331C632.037 899 629.8 886.6 627.2 886.992z"/><path d="M627.973 838.556c-6.108-0.624-8.633 4.972-9.362 12.121c-1.238 12.1 6.2 26.2 8.9 23.1 c3.038-3.552 0.664-14.884 1.394-22.032C629.245 848.7 630.1 838.8 628 838.556z"/></g><g><path fill="#2E3192" d="M439.772 921.588c8.348 33.2 42.7 52.9 75.8 44.186s69.889-44.358 44.187-75.793 c-55.388-67.744-83.216-205.888-83.216-205.888S418.939 838.6 439.8 921.588z"/><path d="M515.487 946.015c8.629 8.7 19.6 3.2 29.699-6.886c17.172-17.116 14.248-31.989 6.133-30.528 c-9.158 1.647-10.594 5.795-20.723 15.892C526.337 928.7 512.5 943.1 515.5 946.015z"/><path d="M461.179 937.459c-3.385 9.2 4.3 15.4 15.1 19.318c18.309 6.7 43.2 0.7 39.35-4.729 c-4.309-6.118-22.828-6.917-33.627-10.876C477.456 939.5 462.3 934.3 461.2 937.459z"/><path d="M449.177 886.992c-7.655 1.226-8.914 8.875-7.479 17.832c2.432 15.2 16.1 30 18.4 25.3 c2.551-5.322-4.033-18.374-5.467-27.331C454.037 899 451.8 886.6 449.2 886.992z"/><path d="M449.973 838.556c-6.108-0.624-8.633 4.972-9.362 12.121c-1.238 12.1 6.2 26.2 8.9 23.1 c3.038-3.552 0.664-14.884 1.394-22.032C451.245 848.7 452.1 838.8 450 838.556z"/></g><g><path fill="#2E3192" d="M886.224 843.051c-213.154-40.836-82.074-360.622-82.074-360.622s-113.361 164.563-76.323 351.5 c15.368 77.6 90.7 128 168.3 112.625S963.888 857.9 886.2 843.051z"/><path d="M829.997 920.427c0 10.7 18.7 16.9 41.7 16.889s41.667-5.556 41.667-18.824c0-6.698-18.655-5.429-41.667-5.429 S829.997 913.7 830 920.427z"/><path d="M766.501 872.062c-8.145 8.4 1.4 22.9 16.4 35.966c14.987 13.1 32.8 18.1 37.8 11.4 c3.514-4.605-9.061-14.15-24.047-27.242C781.739 879.1 770.5 867.9 766.5 872.062z"/><path d="M738.593 808.81c-8.521 2.807-7.145 16.098-1.582 30.343c5.562 14.2 15.9 24 21.7 21.2 c4.03-1.891-1.147-12.861-6.71-27.105C746.462 819 742.8 807.4 738.6 808.81z"/><path d="M735.501 752.603c-7.517-0.354-10.419 10.47-10.33 23.294c0.09 12.8 5.3 23.5 10.7 23.1 c3.723-0.274 2.953-10.418 2.865-23.242C738.599 763 739.2 752.8 735.5 752.603z"/></g><g><path fill="#2E3192" d="M113.777 842.051c213.154-40.836 82.074-360.622 82.074-360.622s113.361 164.6 76.3 351.5 c-15.369 77.57-90.709 127.994-168.279 112.625C26.325 930.2 36.1 856.9 113.8 842.051z"/><path d="M170.003 919.427c0 10.667-18.655 16.889-41.667 16.889S86.67 930.8 86.7 917.492c0-6.698 18.655-5.429 41.667-5.429 S170.003 912.7 170 919.427z"/><path d="M233.499 871.062c8.145 8.365-1.439 22.874-16.427 35.966c-14.987 13.093-32.762 18.113-37.847 11.4 c-3.513-4.605 9.061-14.15 24.048-27.242C218.26 878.1 229.5 866.9 233.5 871.062z"/><path d="M261.408 807.81c8.521 2.8 7.1 16.1 1.6 30.343s-15.891 23.98-21.724 21.2 c-4.03-1.891 1.148-12.861 6.71-27.105C253.538 818 257.2 806.4 261.4 807.81z"/><path d="M264.5 751.603c7.516-0.354 10.4 10.5 10.3 23.294s-5.263 23.543-10.652 23.1 c-3.723-0.274-2.953-10.418-2.864-23.242C261.401 762 260.8 751.8 264.5 751.603z"/></g><path fill="#2E3192" d="M770.916 321.031c0 123.975-148.049-30.938-272.022-30.938 c-123.974 0-253.735 144.306-253.735 20.332S501.978 32.2 502 32.157S770.916 197.1 770.9 321.031z"/><path fill="#2E3192" d="M857.533 483.093c0 196.368-159.188 355.556-355.556 355.6 S146.422 679.5 146.4 483.093s355.556-355.556 355.556-355.556S857.533 286.7 857.5 483.093z"/><path fill="#1B1464" d="M887.536 493.728c0 212.938-177.917 57.473-390.855 57.473s-380.262 155.466-380.262-57.473 c0-212.938 385.559-385.559 385.559-385.559S887.536 280.8 887.5 493.728z"/><circle fill="#FFFFFF" cx="662.7" cy="684.1" r="72"/><circle fill="#FFFFFF" cx="339.7" cy="684.1" r="72"/><path d="M720.515 714.603c0 0-23.372-20.206-57.044-29.228c-33.671-9.023-64.893-3.445-64.893-3.445 s38.999-36.359 72.671-27.337C704.92 663.6 720.5 714.6 720.5 714.603z"/><path d="M279.577 714.603c0 0 23.372-20.206 57.044-29.228c33.671-9.023 64.893-3.445 64.893-3.445 s-38.999-36.359-72.671-27.337C295.172 663.6 279.6 714.6 279.6 714.603z"/></g><g display="none"><circle display="inline" fill="none" stroke="#FF00FF" stroke-width="3" stroke-miterlimit="10" cx="500" cy="500" r="493.2"/><circle display="inline" fill="none" stroke="#FF00FF" stroke-width="3" stroke-miterlimit="10" cx="500" cy="500" r="313.7"/><line display="inline" fill="none" stroke="#FF00FF" stroke-width="3" stroke-miterlimit="10" x1="0" y1="0" x2="1000" y2="1000"/><line display="inline" fill="none" stroke="#FF00FF" stroke-width="3" stroke-miterlimit="10" x1="1000" y1="0" x2="0" y2="1000"/></g></g></svg>